<?xml version="1.0" encoding="utf-8"?>
<!-- Generator: Adobe Illustrator 18.0.0, SVG Export Plug-In . SVG Version: 6.00 Build 0)  -->
<!DOCTYPE svg PUBLIC "-//W3C//DTD SVG 1.1//EN" "http://www.w3.org/Graphics/SVG/1.1/DTD/svg11.dtd">
<svg version="1.1" id="Layer_1" xmlns="http://www.w3.org/2000/svg" xmlns:xlink="http://www.w3.org/1999/xlink" x="0px" y="0px"
	 viewBox="0 0 110 110" enable-background="new 0 0 110 110" xml:space="preserve">
<path d="M126,34.2"/>
<path d="M69.5,59.1L64,59.3V38.4l-2.4-7.2l5.9-7.5v-7.3L59,23.8l-4.6-13.5l0,0l0,0l-4.3,13.6l-8.4-7.5v7.3l6.1,7.7l-2.2,6.8
	l-0.1,0.2v20.9l-4.7-0.2L11.4,50l4.3,13l14,6.4v7.6h6.2v-4.7L46,76.8c0.5,5.9,1.4,11.4,2.6,15.6c0,0,0,0,0,0c0,0.1,0.1,0.2,0.1,0.3
	c1.2,4,3,7.1,5.4,7.6c0,0,0,0,0,0c0.2,0,0.4,0.1,0.6,0.1c0.2,0,0.4,0,0.6-0.1c0,0,0,0,0.1,0c0.2,0,0.3-0.1,0.5-0.1c0,0,0,0,0,0
	c1.7-0.7,3.1-2.8,4.2-5.6c0,0,0,0,0,0c0.1-0.3,0.2-0.5,0.3-0.8c0-0.1,0.1-0.2,0.1-0.3c0-0.1,0.1-0.2,0.1-0.2
	c1.4-4.2,2.3-9.9,2.9-16.1l10.3-4.7v4.5h6.2v-7.3L94.5,63l4.3-13L69.5,59.1z M61.1,64.5c0,3.9-0.1,7.5-0.4,10.7l0,0l-0.1,0.8
	c-0.2,1.9-0.3,3.6-0.5,5.2c0,0,0,0.1,0,0.1c-0.1,0.7-0.2,1.3-0.3,1.9c0,0.3-0.1,0.6-0.1,0.8c0,0.2-0.1,0.5-0.1,0.7
	c-0.1,0.7-0.2,1.3-0.4,1.9c0,0,0,0,0,0.1c-0.2,1.2-0.5,2.2-0.7,3.2c0,0.1,0,0.1,0,0.2c-0.1,0.4-0.2,0.9-0.4,1.3
	c-0.1,0.3-0.2,0.7-0.3,1c0,0,0,0.1,0,0.1c-1.1,3.5-2.3,5-3,5c-0.7,0-1.9-1.6-3-5c0-0.1-0.1-0.3-0.1-0.4c-0.1-0.2-0.1-0.4-0.2-0.6
	c-0.5-1.9-1.1-4.1-1.5-6.8c0-0.3-0.1-0.5-0.1-0.8c0-0.3-0.1-0.5-0.1-0.8c-0.1-0.7-0.2-1.4-0.3-2.1c0,0,0,0,0,0
	c-0.2-1.7-0.4-3.4-0.5-5.4l-0.1-0.8l0,0c-0.2-3.2-0.4-6.6-0.4-10.4v-2.3V38.8l2.6-8l0,0l0.6-1.9l0,0l3-9.5l6.6,19.4v23.4V64.5z
	 M64.6,22.7l-4.1,5.3L60,26.7L64.6,22.7z M44.5,22.7L44.5,22.7l4.7,4.1l-0.4,1.3L44.5,22.7z M33.1,67.8v6.3h-0.5v-6.6L18,60.9
	l-2.2-6.6l24.5,7.6l5.2,0.2v2.4c0,3,0.1,6.1,0.3,9.1L33.1,67.8z M92.2,60.9l-15.2,6.9v6.3h-0.5v-6l-12.9,5.9
	c0.2-3.1,0.3-6.3,0.3-9.4v-2.4l6-0.2l24.5-7.6L92.2,60.9z"/>
</svg>
