<?xml version="1.0" encoding="utf-8"?>
<!-- Generator: Adobe Illustrator 18.0.0, SVG Export Plug-In . SVG Version: 6.00 Build 0)  -->
<!DOCTYPE svg PUBLIC "-//W3C//DTD SVG 1.1//EN" "http://www.w3.org/Graphics/SVG/1.1/DTD/svg11.dtd">
<svg version="1.1" id="Layer_1" xmlns="http://www.w3.org/2000/svg" xmlns:xlink="http://www.w3.org/1999/xlink" x="0px" y="0px"
	 viewBox="0 0 110 110" enable-background="new 0 0 110 110" xml:space="preserve">
<path d="M51.7,30.4c-5.7,8.7-10.6,17.7-10.8,24.4h3.8c0.2-6,4-14,8.5-21.8C52.7,32.2,52.2,31.3,51.7,30.4z"/>
<path d="M61.7,54.8h3.8c-0.2-6.6-5.2-15.7-10.8-24.4c-0.5,0.9-1,1.7-1.5,2.6C57.8,40.9,61.6,48.8,61.7,54.8z"/>
<path d="M51.7,30.4c0.5,0.9,1,1.7,1.5,2.6c0.5-0.9,1-1.7,1.5-2.6c-0.5-0.8-1-1.5-1.5-2.3C52.7,28.9,52.2,29.7,51.7,30.4z"/>
<path d="M44.7,54.8h-3.8c0.2,6.6,5.2,15.7,10.8,24.4c0.5-0.9,1-1.7,1.5-2.6C48.7,68.8,44.9,60.9,44.7,54.8z"/>
<path d="M54.7,79.2c5.7-8.7,10.6-17.7,10.8-24.4h-3.8c-0.2,6-4,14-8.5,21.8C53.7,77.5,54.2,78.4,54.7,79.2z"/>
<path d="M54.7,79.2c-0.5-0.9-1-1.7-1.5-2.6c-0.5,0.9-1,1.7-1.5,2.6c0.5,0.8,1,1.5,1.5,2.3C53.7,80.7,54.2,80,54.7,79.2z"/>
<path fill="none" d="M61.7,6.3h-17c0.2,6,4,14,8.5,21.8C57.8,20.3,61.6,12.4,61.7,6.3z"/>
<path d="M44.7,6.3h-3.8C41.1,13,46.1,22,51.7,30.7c0.5-0.9,1-1.7,1.5-2.6C48.7,20.3,44.9,12.4,44.7,6.3z"/>
<path d="M54.7,30.7C60.4,22,65.4,13,65.6,6.3h-3.8c-0.2,6-4,14-8.5,21.8C53.7,29,54.2,29.9,54.7,30.7z"/>
<path d="M54.7,30.7c-0.5-0.9-1-1.7-1.5-2.6c-0.5,0.9-1,1.7-1.5,2.6c0.5,0.8,1,1.5,1.5,2.3C53.7,32.3,54.2,31.5,54.7,30.7z"/>
<path fill="none" d="M44.7,103.3h17c-0.2-6-4-14-8.5-21.8C48.7,89.4,44.9,97.3,44.7,103.3z"/>
<path d="M51.7,78.9c-5.7,8.7-10.6,17.7-10.8,24.4h3.8c0.2-6,4-14,8.5-21.8C52.7,80.6,52.2,79.8,51.7,78.9z"/>
<path d="M61.7,103.3h3.8c-0.2-6.6-5.2-15.7-10.8-24.4c-0.5,0.9-1,1.7-1.5,2.6C57.8,89.4,61.6,97.3,61.7,103.3z"/>
<path d="M51.7,78.9c0.5,0.9,1,1.7,1.5,2.6c0.5-0.9,1-1.7,1.5-2.6c-0.5-0.8-1-1.5-1.5-2.3C52.7,77.4,52.2,78.2,51.7,78.9z"/>
<path fill="none" d="M44.9,4.3c-0.1,0.7-0.2,1.4-0.2,2h17c0-0.6-0.1-1.3-0.2-2H44.9z"/>
<path d="M41.1,4.3c-0.1,0.7-0.2,1.4-0.2,2h3.8c0-0.6,0.1-1.3,0.2-2H41.1z"/>
<path d="M61.7,6.3h3.8c0-0.6-0.1-1.3-0.2-2h-3.8C61.6,5,61.7,5.7,61.7,6.3z"/>
<path fill="none" d="M61.6,104.7c0-0.5,0.1-0.9,0.1-1.3h-17c0,0.4,0.1,0.9,0.1,1.3H61.6z"/>
<path d="M44.7,103.3h-3.8c0,0.4,0.1,0.9,0.1,1.3h3.8C44.8,104.2,44.7,103.8,44.7,103.3z"/>
<path d="M65.5,104.7c0.1-0.5,0.1-0.9,0.1-1.3h-3.8c0,0.4-0.1,0.9-0.1,1.3H65.5z"/>
<line fill="none" stroke="#231F20" stroke-width="1.4173" stroke-miterlimit="10" x1="44.3" y1="8.4" x2="63" y2="6.4"/>
<line fill="none" stroke="#231F20" stroke-width="1.4173" stroke-miterlimit="10" x1="45.3" y1="11.9" x2="64.1" y2="12.4"/>
<line fill="none" stroke="#231F20" stroke-width="1.4173" stroke-miterlimit="10" x1="44.9" y1="15.2" x2="60.7" y2="18"/>
<line fill="none" stroke="#231F20" stroke-width="1.4173" stroke-miterlimit="10" x1="45.9" y1="18" x2="57.9" y2="23"/>
<line fill="none" stroke="#231F20" stroke-width="1.4173" stroke-miterlimit="10" x1="48.6" y1="21.8" x2="56.7" y2="27.5"/>
<line fill="none" stroke="#231F20" stroke-width="1.4173" stroke-miterlimit="10" x1="44" y1="52.6" x2="62.5" y2="49.5"/>
<line fill="none" stroke="#231F20" stroke-width="1.4173" stroke-miterlimit="10" x1="44.2" y1="47.5" x2="60" y2="44.7"/>
<line fill="none" stroke="#231F20" stroke-width="1.4173" stroke-miterlimit="10" x1="45.9" y1="44.1" x2="57.9" y2="39.1"/>
<line fill="none" stroke="#231F20" stroke-width="1.4173" stroke-miterlimit="10" x1="47.7" y1="40.8" x2="55.8" y2="35"/>
<path fill="none" d="M45.4,54.1c-0.1,0.7-0.2,1.4-0.2,2h17c0-0.6-0.1-1.3-0.2-2H45.4z"/>
<line fill="none" stroke="#231F20" stroke-width="1.4173" stroke-miterlimit="10" x1="44.7" y1="57.1" x2="63.4" y2="55.1"/>
<line fill="none" stroke="#231F20" stroke-width="1.4173" stroke-miterlimit="10" x1="45.5" y1="61.2" x2="62" y2="61.4"/>
<line fill="none" stroke="#231F20" stroke-width="1.4173" stroke-miterlimit="10" x1="45.4" y1="64.7" x2="61.2" y2="67.5"/>
<line fill="none" stroke="#231F20" stroke-width="1.4173" stroke-miterlimit="10" x1="46.4" y1="67.5" x2="58.4" y2="72.5"/>
<line fill="none" stroke="#231F20" stroke-width="1.4173" stroke-miterlimit="10" x1="49.1" y1="71.6" x2="54.9" y2="74.9"/>
<line fill="none" stroke="#231F20" stroke-width="1.4173" stroke-miterlimit="10" x1="43.8" y1="101" x2="62.5" y2="103"/>
<line fill="none" stroke="#231F20" stroke-width="1.4173" stroke-miterlimit="10" x1="44.8" y1="97.5" x2="63.6" y2="97"/>
<line fill="none" stroke="#231F20" stroke-width="1.4173" stroke-miterlimit="10" x1="44.4" y1="94.1" x2="60.2" y2="91.3"/>
<line fill="none" stroke="#231F20" stroke-width="1.4173" stroke-miterlimit="10" x1="45.4" y1="91.3" x2="57.3" y2="86.3"/>
<line fill="none" stroke="#231F20" stroke-width="1.4173" stroke-miterlimit="10" x1="48" y1="87.6" x2="56.1" y2="81.8"/>
</svg>
