<?xml version="1.0" encoding="utf-8"?>
<!-- Generator: Adobe Illustrator 18.0.0, SVG Export Plug-In . SVG Version: 6.00 Build 0)  -->
<!DOCTYPE svg PUBLIC "-//W3C//DTD SVG 1.1//EN" "http://www.w3.org/Graphics/SVG/1.1/DTD/svg11.dtd">
<svg version="1.1" id="Layer_1" xmlns="http://www.w3.org/2000/svg" xmlns:xlink="http://www.w3.org/1999/xlink" x="0px" y="0px"
	 viewBox="0 0 110 110" enable-background="new 0 0 110 110" xml:space="preserve">
<path d="M15.1,95.2c0-0.5,0-1,0-1.6c0-0.1,0.1-0.1,0.1-0.2c0.2-1.7,0.8-3.2,1.7-4.7c8.6-14.1,17.3-28.2,25.9-42.3
	c0.1-0.2,0.2-0.5,0.2-0.8c0-9.6,0-19.2,0-28.8c0-0.5-0.1-0.8-0.5-1.1c-2.2-2-2.4-4.9-0.5-7C42.7,8,43.4,7.5,44.3,7
	c2.2-1.1,4.5-1.7,6.9-1.9C52,5,52.9,4.9,53.7,4.9c0.9,0,1.8,0,2.7,0c0.1,0,0.2,0,0.3,0C59,5,61.2,5.4,63.4,6.1
	c1.6,0.5,3.2,1.3,4.4,2.5c1,1,1.5,2.3,1.4,3.7c-0.1,1.5-0.8,2.6-2,3.6c-0.2,0.2-0.3,0.4-0.3,0.7c0,9.7,0,19.4,0,29.1
	c0,0.2,0.1,0.5,0.2,0.7c8.7,14.2,17.4,28.4,26.1,42.5c1.4,2.2,1.9,4.6,1.5,7.2c-0.8,4.4-4.1,7.9-8.6,8.8c-0.6,0.1-1.3,0.2-1.9,0.3
	c-19.5,0-39,0-58.5,0c-0.5-0.1-1.1-0.1-1.6-0.2c-4.4-1-7.4-3.6-8.7-7.9C15.3,96.4,15.2,95.8,15.1,95.2z M37.6,65.8
	c-0.1,0.1-0.2,0.2-0.2,0.4c-2.2,3.7-4.5,7.3-6.7,11c-3,4.9-6,9.9-9.1,14.8c-0.6,1-0.9,2.2-0.7,3.4c0.5,2.5,2.7,4.2,5.4,4.2
	c19.1,0,38.3,0,57.4,0c0.6,0,1.1-0.1,1.7-0.2c3.1-0.9,4.9-4.3,3-7.4c-5.3-8.6-10.5-17.1-15.8-25.7c-0.1-0.1-0.2-0.2-0.2-0.3
	c-1.3,0.4-2.4,0.8-3.7,1.1c-3.9,1-7.9,1.3-12,1.4c-2.5,0-5,0-7.5-0.2C45.3,67.9,41.3,67.4,37.6,65.8z M43.4,56.3
	c7.8-1.2,15.5-1.2,23.3,0c-0.1-0.2-0.2-0.3-0.2-0.4c-1.6-2.6-3.2-5.2-4.8-7.8c-0.1-0.2-0.2-0.5-0.2-0.8c0-9.4,0-18.8,0-28.2
	c0-0.2,0-0.3,0-0.5c-4.3,0.9-8.5,0.9-12.8,0c0,0.2,0,0.4,0,0.5c0,9.4,0,18.8,0,28.2c0,0.3-0.1,0.6-0.2,0.9c-0.9,1.5-1.8,2.9-2.6,4.3
	C44.9,53.7,44.2,55,43.4,56.3z M70.2,62.2c-0.2-0.5-0.5-0.8-0.9-0.9c-0.5-0.1-1-0.3-1.4-0.4c-3.9-0.9-7.8-1.2-11.8-1.3
	c-3.2-0.1-6.4,0.1-9.5,0.5c-2,0.3-4,0.6-6,1.2c-0.4,0.1-0.7,0.4-0.8,0.7c0,0,0.1,0.1,0.1,0.1c0.1,0,0.2,0.1,0.3,0.1
	c2.8,1,5.7,1.4,8.6,1.6c3.2,0.3,6.4,0.3,9.6,0.2c2.9-0.1,5.8-0.4,8.7-1.1C68.2,62.8,69.2,62.5,70.2,62.2z M63,12
	c-3.9-2.1-12.7-1.9-15.9,0C50.6,14,59.4,14,63,12z"/>
<path d="M44.2,79.8c-1.9,0-3.4-1.5-3.4-3.4c0-1.9,1.5-3.4,3.4-3.4c1.9,0,3.4,1.5,3.4,3.4C47.6,78.3,46.1,79.8,44.2,79.8z M41.8,76.4
	c0,1.3,1,2.3,2.3,2.3c1.2,0,2.3-1.1,2.3-2.3c0-1.2-1-2.3-2.3-2.3C42.9,74.1,41.9,75.1,41.8,76.4z"/>
<path d="M51.8,84.7c-1.6,0-2.8-1.2-2.8-2.8c0-1.5,1.2-2.8,2.8-2.8c1.6,0,2.8,1.2,2.8,2.8C54.6,83.5,53.3,84.7,51.8,84.7z M51.8,83.6
	c0.9,0,1.7-0.8,1.7-1.7c0-0.9-0.8-1.7-1.7-1.7c-0.9,0-1.7,0.8-1.7,1.7C50.1,82.9,50.8,83.6,51.8,83.6z"/>
<path d="M48.8,87.9c0,1.2-0.9,2.1-2.1,2.1c-1.1,0-2-0.9-2.1-2.1c0-1.2,0.9-2.1,2.1-2.1C47.9,85.8,48.8,86.7,48.8,87.9z M47.7,87.9
	c0-0.5-0.4-1-1-1c-0.5,0-1,0.5-1,1c0,0.5,0.4,1,1,1C47.3,88.8,47.7,88.4,47.7,87.9z"/>
<path d="M48.3,92.5c1,0,1.7,0.8,1.7,1.7c0,1-0.8,1.7-1.7,1.7c-1,0-1.7-0.8-1.7-1.7C46.6,93.2,47.4,92.5,48.3,92.5z M48.3,94.8
	c0.3,0,0.6-0.3,0.6-0.6c0-0.3-0.3-0.6-0.6-0.6c-0.3,0-0.6,0.3-0.6,0.6C47.7,94.5,48,94.8,48.3,94.8z"/>
</svg>
