<?xml version="1.0" encoding="utf-8"?>
<!-- Generator: Adobe Illustrator 18.0.0, SVG Export Plug-In . SVG Version: 6.00 Build 0)  -->
<!DOCTYPE svg PUBLIC "-//W3C//DTD SVG 1.1//EN" "http://www.w3.org/Graphics/SVG/1.1/DTD/svg11.dtd">
<svg version="1.1" id="Layer_1" xmlns="http://www.w3.org/2000/svg" xmlns:xlink="http://www.w3.org/1999/xlink" x="0px" y="0px"
	 viewBox="0 0 110 110" enable-background="new 0 0 110 110" xml:space="preserve">
<path d="M126,34.2"/>
<path fill="none" stroke="#231F20" stroke-width="5.6693" stroke-miterlimit="10" d="M75.8,57.5H20.4c-3.1,0-5.5-2.5-5.5-5.5V20
	c0-3.1,2.5-5.5,5.5-5.5h55.4c3.1,0,5.5,2.5,5.5,5.5v32C81.4,55,78.9,57.5,75.8,57.5z"/>
<line fill="none" stroke="#231F20" stroke-width="5.6693" stroke-miterlimit="10" x1="48.1" y1="57.4" x2="48.1" y2="67.2"/>
<line fill="none" stroke="#231F20" stroke-width="5.6693" stroke-miterlimit="10" x1="12.1" y1="69.6" x2="84.1" y2="69.6"/>
<rect x="13.4" y="76.6" fill="none" stroke="#231F20" stroke-width="2.8346" stroke-miterlimit="10" width="69.4" height="20.1"/>
<line fill="none" stroke="#231F20" stroke-width="2.8346" stroke-miterlimit="10" x1="12.1" y1="90" x2="84.1" y2="90"/>
<line fill="none" stroke="#231F20" stroke-width="2.8346" stroke-miterlimit="10" x1="12.1" y1="83.3" x2="84.1" y2="83.3"/>
<line fill="none" stroke="#231F20" stroke-width="2.8346" stroke-miterlimit="10" x1="20.2" y1="77" x2="20.2" y2="95.7"/>
<line fill="none" stroke="#231F20" stroke-width="2.8346" stroke-miterlimit="10" x1="27" y1="78" x2="27" y2="96.8"/>
<line fill="none" stroke="#231F20" stroke-width="2.8346" stroke-miterlimit="10" x1="34" y1="78" x2="34" y2="96.8"/>
<line fill="none" stroke="#231F20" stroke-width="2.8346" stroke-miterlimit="10" x1="41" y1="78" x2="41" y2="96.8"/>
<line fill="none" stroke="#231F20" stroke-width="2.8346" stroke-miterlimit="10" x1="48" y1="78" x2="48" y2="96.8"/>
<line fill="none" stroke="#231F20" stroke-width="2.8346" stroke-miterlimit="10" x1="48.2" y1="77" x2="48.2" y2="95.7"/>
<line fill="none" stroke="#231F20" stroke-width="2.8346" stroke-miterlimit="10" x1="55" y1="78" x2="55" y2="96.8"/>
<line fill="none" stroke="#231F20" stroke-width="2.8346" stroke-miterlimit="10" x1="62" y1="78" x2="62" y2="96.8"/>
<line fill="none" stroke="#231F20" stroke-width="2.8346" stroke-miterlimit="10" x1="69" y1="78" x2="69" y2="96.8"/>
<line fill="none" stroke="#231F20" stroke-width="2.8346" stroke-miterlimit="10" x1="76" y1="78" x2="76" y2="96.8"/>
<path fill="none" stroke="#231F20" stroke-width="2.126" stroke-miterlimit="10" d="M82,69c0.1,1.5,8.9,0.5,11.4,4.1
	c0.6,0.9,1.5,2.6,1.6,3.5c0.5,4-1.1,5.3-1.8,7.6C93,85.1,93,85.8,93,87.8"/>
<ellipse fill="#231F20" cx="92.5" cy="91.5" rx="4.8" ry="6.6"/>
</svg>
