<?xml version="1.0" encoding="utf-8"?>
<!-- Generator: Adobe Illustrator 18.0.0, SVG Export Plug-In . SVG Version: 6.00 Build 0)  -->
<!DOCTYPE svg PUBLIC "-//W3C//DTD SVG 1.1//EN" "http://www.w3.org/Graphics/SVG/1.1/DTD/svg11.dtd">
<svg version="1.1" id="Layer_1" xmlns="http://www.w3.org/2000/svg" xmlns:xlink="http://www.w3.org/1999/xlink" x="0px" y="0px"
	 viewBox="0 0 110 110" enable-background="new 0 0 110 110" xml:space="preserve">
<line fill="#FFFFFF" stroke="#231F20" stroke-width="5.6693" stroke-miterlimit="10" x1="12.1" y1="68.6" x2="96.4" y2="68.6"/>
<line fill="#FFFFFF" stroke="#231F20" stroke-width="1.4173" stroke-miterlimit="10" x1="16.4" y1="50" x2="16.4" y2="68.6"/>
<line fill="#FFFFFF" stroke="#231F20" stroke-width="1.4173" stroke-miterlimit="10" x1="24.4" y1="50" x2="24.4" y2="68.6"/>
<line fill="#FFFFFF" stroke="#231F20" stroke-width="1.4173" stroke-miterlimit="10" x1="20.4" y1="50" x2="20.4" y2="68.6"/>
<line fill="#FFFFFF" stroke="#231F20" stroke-width="1.4173" stroke-miterlimit="10" x1="28.4" y1="50" x2="28.4" y2="68.6"/>
<line fill="#FFFFFF" stroke="#231F20" stroke-width="1.4173" stroke-miterlimit="10" x1="36.4" y1="50" x2="36.4" y2="68.6"/>
<line fill="#FFFFFF" stroke="#231F20" stroke-width="1.4173" stroke-miterlimit="10" x1="32.4" y1="50" x2="32.4" y2="68.6"/>
<line fill="#FFFFFF" stroke="#231F20" stroke-width="1.4173" stroke-miterlimit="10" x1="40.4" y1="50" x2="40.4" y2="68.6"/>
<line fill="#FFFFFF" stroke="#231F20" stroke-width="1.4173" stroke-miterlimit="10" x1="44.4" y1="50" x2="44.4" y2="68.6"/>
<path fill="none" stroke="#231F20" stroke-width="1.4173" stroke-miterlimit="10" d="M17.4,38.9c0,0-6.6,5,0.8,7.6
	c6.1,2.1,20.2,2.2,26.2,0c1.6-0.6,3.9-4.9-1-7.5c-4.8-2.6-14,2-19.6,3.1C20.8,42.7,17.5,43.1,17.4,38.9z"/>
</svg>
