<?xml version="1.0" encoding="utf-8"?>
<!-- Generator: Adobe Illustrator 18.0.0, SVG Export Plug-In . SVG Version: 6.00 Build 0)  -->
<!DOCTYPE svg PUBLIC "-//W3C//DTD SVG 1.1//EN" "http://www.w3.org/Graphics/SVG/1.1/DTD/svg11.dtd">
<svg version="1.1" id="Layer_1" xmlns="http://www.w3.org/2000/svg" xmlns:xlink="http://www.w3.org/1999/xlink" x="0px" y="0px"
	 viewBox="0 0 110 110" enable-background="new 0 0 110 110" xml:space="preserve">
<path d="M126,34.2"/>
<path d="M100.1,57.7v-7.6h-7c-0.3-2.3-0.7-4.5-1.4-6.7l6.8-2.8l-2.9-7.1l-6.8,2.8c-1.2-2.3-2.6-4.4-4.3-6.5l5.3-5.3l-5.4-5.4
	l-5.3,5.3c-1.8-1.5-3.8-2.9-6-4l2.6-6.3l-7-3l-2.6,6.3c-2.5-0.8-5-1.3-7.5-1.5V9h-7.6v6.9c-2.3,0.2-4.5,0.6-6.7,1.3l-2.6-6.4
	l-7.1,2.9l2.6,6.3c-2.3,1.2-4.4,2.5-6.4,4.1L26,19.1l-5.4,5.4l4.8,4.8c-1.7,2-3.2,4.2-4.4,6.5l-6.3-2.7l-3,7l6.3,2.7
	c-0.8,2.4-1.3,4.9-1.5,7.5H9.7v7.6h6.8c0.2,2.5,0.7,5,1.5,7.5l-6,2.4l2.9,7.1l6-2.4c1.2,2.3,2.7,4.4,4.3,6.4l-4.4,4.4l5.4,5.4
	l4.5-4.5c1.9,1.5,3.9,2.9,6.1,4L34,94.6l7,3l2.7-6.4c2.5,0.8,5.1,1.3,7.7,1.5v6.8H59v-6.9c2.6-0.3,5.1-0.8,7.5-1.6l2.6,6.3l7.1-2.9
	L73.5,88c2.3-1.3,4.5-2.8,6.5-4.5l4.8,4.8l5.4-5.4L85.2,78c1.3-1.7,2.6-3.6,3.6-5.5l6.3,2.7l3-7l-6.4-2.7c0.8-2.5,1.3-5.1,1.5-7.7
	H100.1z M83.3,66.3c-4.8,11.5-16,18.9-28.5,18.9c-4.1,0-8.2-0.8-12-2.4c-7.6-3.2-13.5-9.2-16.6-16.8c-3.1-7.6-3.1-16,0.1-23.7
	c4.8-11.5,16-18.9,28.5-18.9c4.1,0,8.2,0.8,12,2.4C74.5,29,80.4,35,83.5,42.6C86.6,50.2,86.5,58.6,83.3,66.3z"/>
<path d="M76.4,55.9v-3.7H73c-0.1-1.1-0.3-2.2-0.7-3.3l3.3-1.3l-1.4-3.4l-3.3,1.3c-0.6-1.1-1.3-2.2-2.1-3.1l2.6-2.6l-2.6-2.6
	l-2.5,2.5c-0.9-0.7-1.9-1.4-2.9-2l1.3-3l-3.4-1.4l-1.3,3c-1.2-0.4-2.4-0.6-3.6-0.7v-3.3h-3.7v3.3c-1.1,0.1-2.2,0.3-3.2,0.6l-1.3-3.1
	l-3.4,1.4l1.2,3.1c-1.1,0.6-2.1,1.2-3.1,2l-2.4-2.4l-2.6,2.6l2.3,2.3c-0.8,1-1.5,2-2.2,3.2L34.9,44l-1.4,3.4l3.1,1.3
	c-0.4,1.2-0.6,2.4-0.7,3.6h-3.3V56h3.3c0.1,1.2,0.4,2.4,0.7,3.6l-2.9,1.2l1.4,3.4l2.9-1.2c0.6,1.1,1.3,2.1,2.1,3.1l-2.2,2.2l2.6,2.6
	l2.2-2.2c0.9,0.7,1.9,1.4,2.9,1.9l-1.3,3.1l3.4,1.4l1.3-3.1c1.2,0.4,2.5,0.6,3.7,0.7v3.3h3.7v-3.3c1.3-0.1,2.5-0.4,3.6-0.8l1.2,3.1
	l3.4-1.4l-1.3-3.1c1.1-0.6,2.2-1.3,3.1-2.2l2.3,2.3l2.6-2.6l-2.4-2.4c0.7-0.8,1.2-1.7,1.7-2.7l3.1,1.3l1.4-3.4l-3.1-1.3
	c0.4-1.2,0.6-2.5,0.7-3.7H76.4z M68.2,60.1c-2.3,5.6-7.8,9.2-13.8,9.2c-2,0-4-0.4-5.8-1.2c-3.7-1.6-6.6-4.5-8.1-8.2
	c-1.5-3.7-1.5-7.8,0.1-11.5c2.3-5.6,7.8-9.2,13.8-9.2c2,0,4,0.4,5.8,1.2c3.7,1.6,6.6,4.5,8.1,8.2C69.8,52.3,69.8,56.4,68.2,60.1z"/>
</svg>
