<?xml version="1.0" encoding="utf-8"?>
<!-- Generator: Adobe Illustrator 18.0.0, SVG Export Plug-In . SVG Version: 6.00 Build 0)  -->
<!DOCTYPE svg PUBLIC "-//W3C//DTD SVG 1.1//EN" "http://www.w3.org/Graphics/SVG/1.1/DTD/svg11.dtd">
<svg version="1.1" id="Layer_1" xmlns="http://www.w3.org/2000/svg" xmlns:xlink="http://www.w3.org/1999/xlink" x="0px" y="0px"
	 viewBox="0 0 110 110" enable-background="new 0 0 110 110" xml:space="preserve">
<circle fill="none" stroke="#231F20" stroke-width="5.6693" stroke-miterlimit="10" cx="55" cy="29.1" r="25"/>
<circle fill="none" stroke="#231F20" stroke-width="5.6693" stroke-miterlimit="10" cx="55" cy="80.9" r="25"/>
<path fill="#231F20" d="M53,64.8v5.7h-0.6v-6.3h0.8l3.3,4.9l0.6,1v-1.5v-4.4h0.5v6.3h-0.8l-3.3-4.9L53,64.8z"/>
<path fill="#231F20" d="M53.1,96.8c0.1,0.2,0.3,0.3,0.4,0.4c0.1,0.1,0.3,0.2,0.4,0.2s0.3,0.1,0.4,0.1c0.1,0,0.3,0,0.4,0
	c0.2,0,0.5,0,0.7-0.1c0.2,0,0.4-0.1,0.5-0.2c0.1-0.1,0.3-0.2,0.3-0.4c0.1-0.1,0.1-0.3,0.1-0.5c0-0.2-0.1-0.4-0.2-0.5
	c-0.1-0.1-0.2-0.3-0.4-0.4s-0.4-0.2-0.6-0.3s-0.4-0.2-0.7-0.2c-0.2-0.1-0.4-0.2-0.7-0.3s-0.4-0.2-0.6-0.3c-0.2-0.1-0.3-0.3-0.4-0.5
	c-0.1-0.2-0.2-0.4-0.2-0.7c0-0.3,0.1-0.5,0.2-0.7c0.1-0.2,0.3-0.4,0.5-0.5c0.2-0.1,0.4-0.2,0.7-0.3c0.3-0.1,0.5-0.1,0.8-0.1
	c0.1,0,0.3,0,0.4,0s0.3,0,0.4,0.1c0.1,0,0.3,0.1,0.4,0.2s0.3,0.2,0.4,0.3l-0.2,0.4c-0.2-0.2-0.4-0.3-0.7-0.4S55.4,92,55.2,92
	c-0.2,0-0.4,0-0.6,0.1c-0.2,0-0.4,0.1-0.5,0.2c-0.2,0.1-0.3,0.2-0.4,0.3c-0.1,0.1-0.1,0.3-0.1,0.5c0,0.2,0.1,0.4,0.2,0.5
	c0.1,0.1,0.2,0.3,0.4,0.4c0.2,0.1,0.4,0.2,0.6,0.3c0.2,0.1,0.4,0.2,0.7,0.3s0.4,0.2,0.7,0.3c0.2,0.1,0.4,0.2,0.6,0.4
	s0.3,0.3,0.4,0.5c0.1,0.2,0.2,0.4,0.2,0.7c0,0.2,0,0.4-0.1,0.5c-0.1,0.2-0.2,0.3-0.3,0.4c-0.1,0.1-0.2,0.2-0.4,0.3
	c-0.2,0.1-0.3,0.2-0.5,0.2c-0.2,0.1-0.4,0.1-0.6,0.1c-0.2,0-0.4,0-0.6,0c-0.4,0-0.7-0.1-1-0.2c-0.3-0.1-0.6-0.3-0.8-0.6L53.1,96.8z"
	/>
<path fill="#231F20" d="M72.3,83.7v0.5h-3.7V78h3.6v0.5h-3.1v2.3H72v0.5h-2.9v2.5H72.3z"/>
<path fill="#231F20" d="M43.1,84.1l0.2-1.1l1.4-4.9h0.5l-1.8,6.3h-0.7l-1.8-5.7l-1.8,5.7h-0.8l-1.8-6.3h0.6l1.3,4.8l0.3,1.2L39,83
	l1.6-4.9h0.6l1.5,4.8L43.1,84.1z"/>
<g>
	<line fill="none" stroke="#231F20" stroke-width="0.8504" stroke-miterlimit="10" x1="55.8" y1="74.6" x2="55.8" y2="87.6"/>
	<line fill="none" stroke="#231F20" stroke-width="0.8504" stroke-miterlimit="10" x1="62.2" y1="81.3" x2="49.2" y2="81.3"/>
	<line fill="none" stroke="#231F20" stroke-width="0.8504" stroke-miterlimit="10" x1="60.3" y1="76.5" x2="51.1" y2="85.7"/>
	<line fill="none" stroke="#231F20" stroke-width="0.8504" stroke-miterlimit="10" x1="60.1" y1="85.7" x2="50.9" y2="76.5"/>
</g>
<g>
	<path fill="none" d="M52.8,16.2c-0.3-0.2-0.3-0.2-0.3-0.5c0-0.3,0.9-0.4,0.5-0.4c-0.3,0-1.3,0.4-1,0.6c0.3,0.1,0.3,0.3,0.3,0.3
		s-0.3,0.2-0.6,0.2c-0.2-0.1-0.5-0.1-0.6-0.3c-0.1-0.2,0-0.3,0-0.3s0,0-0.3,0c-0.3,0-0.4,0.1-0.5,0.6c-0.1,0.6-0.2,0.8-0.2,0.8
		s0,0,0.1,0.1c0.1,0.1,1.4,0,1.7-0.1c0.3-0.1,1.2,0.3,1.5,0.4c0.3,0.1,0.3-0.4,0.2-0.6C53.6,16.6,53.1,16.4,52.8,16.2z"/>
	<path opacity="0.82" d="M64.6,26C64.6,26,64.6,26,64.6,26C64.6,26,64.6,26,64.6,26z"/>
	<path d="M67.5,30.3c0,0-0.2-0.9-0.1-1.4c0.1-0.5,0.1-0.5,0.1-0.5s0.9,0.8,0.8,0.9s0.1,0.8,0,0.9s-0.6,0.6-0.7,0.3
		C67.5,30.3,67.5,30.3,67.5,30.3z"/>
	<path d="M73.2,29.3c0,0-0.1,0.3,0.2,0.7c0.3,0.4,0.5,1.4,0.5,1.4S74,31.9,74,32s0.1,0.4,0.1,0.5c0.1,0.2,0.2,0.3,0.2,0.6
		c0,0.3,0.4,0,0.4,0s-0.3,0.7-0.1,0.7c0.1,0,0.7-0.4,1.1-0.5c0,0,0.5,0.1,0.7-0.2s0.6-1,0.6-1s-0.4,0.5-0.7,0.7s-0.7,0.2-1.1,0.2
		s-0.5,0-0.5,0s-0.1-0.5,0.1-0.6c0.1-0.1,0.1-0.7,0-0.7c-0.1,0-0.2,0.3-0.2,0.3l-0.2-1.3c0,0-0.7-0.5-0.8-0.8
		c-0.1-0.2-0.2-0.6-0.4-0.6S73.2,29.3,73.2,29.3z"/>
	<path d="M75.4,29.6c0,0-0.1,0.5,0,0.9c0.1,0.4,0.2,0.7,0.2,0.9s0.4,0.3,0.6,0.1c0.1-0.2,0-0.4,0.2-1c0.2-0.6,0.2-0.7,0.2-1.1
		c0-0.4,0-1.5-0.1-1.8c-0.1-0.3-0.3-0.4-0.3,0.1s-0.3,1.5-0.5,1.6C75.4,29.6,75.4,29.6,75.4,29.6z"/>
	<path d="M54,40.9c0,0,0.1,1.2,0.5,1.3s0.5,0.4,0.9-0.1s0.7-1.3,0.9-1.9s0.2-1.3,0.2-1.3h0.2c0,0,0.1-0.8,0-0.9
		c-0.1-0.1-0.8-0.7-0.8-0.7l-0.1,0.3c0,0,0,0.5-0.1,0.7c-0.1,0.3-0.5,0.7-0.7,0.7c-0.2,0-0.8,0-0.8,0l0,0.5l0.1,0.4L54,40.9z"/>
	<path d="M47.2,18.4c0.1,0-0.1,0.4,0.2,0.5c0.2,0.1,0.4-0.1,0.5,0l0.3-0.5c0-0.1,0.1-0.3,0.1-0.5c0-0.4-0.4-0.6-0.9-0.6
		c-0.3,0-0.4,0.2-0.4,0.3c0,0.1,0,0.1,0,0.1C47.1,18,47.1,18.4,47.2,18.4z"/>
	<path d="M74,23.5c0-0.1,0-1.1,0.1-1c0.1,0.1,0.3,0.6,0.3,0.8s0,0.5,0.2,0.5c0.2,0,0.2-0.8,0.2-0.8l-0.3-0.6c0,0,0.2-0.2,0.4-0.4
		c0.2-0.2,0.1-0.4,0.1-1c0-0.6-0.2-0.5-0.2-0.9c0-0.3-0.1-1.2-0.3-1.3c-0.2-0.2-0.1-0.3-0.1-0.5c-0.1-0.2-0.5-0.7-0.7-0.7
		c-0.2,0,0.3,0-0.4-0.7c-0.7-0.7-0.8-1-0.8-1.1s0.2,0.2,0.3,0.1c0.1-0.1,0.1-0.6,0.2-0.3c0.1,0.3,0.3,0.7,0.6,1
		c0.3,0.3,0.8,0.9,0.8,0.9s-1.3-2.1-1.4-2.2c-0.1-0.1-3.2-3.6-5.2-4.8c-2.1-1.3-4.7-2.2-4.7-2.2s0.2,0.3-0.1,0.4
		c-0.3,0.1-0.7-0.3-1.2-0.3s-1.1,0-1.1,0s-0.1,0.2-0.3,0.3c-0.2,0.1-0.8,0.3-0.7,0.5c0.1,0.2,0.2,0.2-0.3,0.3
		c-0.5,0.1-0.9-0.1-0.9-0.1s-0.5,0.3-0.2,0.5s0.7,0.3,0.7,0.3s-0.5,0.1-1.1-0.1c-0.6-0.2-1.1-0.6-0.9-0.7c0.3-0.1,0.6,0,0.8-0.4
		c0.2-0.4,0.2-0.4,0.2-0.4S57.3,8.8,57,9c-0.2,0.2-0.6,0.3-0.7,0.4c0,0.1-0.2,0.4,0.1,0.4c0.3,0,1.1,0.4,1.1,0.4s-0.2,0.1-0.8,0.1
		s-0.4,0.2-0.7,0.2c-0.3,0-0.7-0.3-0.8-0.2c-0.2,0.1-0.8,0.1-1-0.1c-0.2-0.2-0.7-0.4-0.8-0.6c-0.1-0.2-1.7,0.1-1.7,0.1l-1.8,1.1
		c0,0-0.2,0-0.7,0.2s-1.3,0.6-1.3,0.8s-0.1,0.9-0.6,1.2c-0.5,0.3-1.1,0.6-1.4,0.8s-0.5,0.1-0.3-0.1c0.2-0.2,0.1-0.7,0.3-0.8
		s0.5-0.9,0.7-1c0.2-0.1,0.4-0.3-0.1-0.3c-0.5,0.1-0.9,0-0.9,0.2c0,0.2-0.1,0.5-0.3,0.5c-0.2,0-0.9,0-0.9,0.2s0,0.3-0.3,0.4
		c-0.2,0.1-0.4,0.4-0.1,0.4S44,13.7,44,13.7l0.7,0.2c0,0-0.4,0.1-0.4,0.2s-0.4,0.1-0.4,0.1s0,0.4-0.2,0.5c-0.2,0.1-0.4,0.4-0.4,0.4
		s0.5-0.1,0.4,0.2c-0.1,0.2-0.5,0.5-0.8,0.5s-0.4-0.5-0.7-0.4c-0.2,0.1-0.4,0.5-0.7,0.9c-0.3,0.4-0.8,1.2-0.8,1.2s0.5,0.2,0.4,0.5
		s0.4,0.1,0.4,0.1s0.7-0.2,0.9-0.2c0.2,0,0-0.4,0.2-0.4c0.2-0.1,0.5-0.9,0.8-0.8c0.2,0.1,0.9-0.2,0.9-0.2l0.7,0.1c0,0,0,0.6-0.2,0.7
		c-0.2,0.1-0.6,0.5-0.6,0.5s0.7,0.3,0.7,0c0-0.3,0.4-0.7,0.4-0.7s0.7-0.2,0.6,0.3c-0.1,0.5-0.9,0.8-0.9,0.8s0.1,0.5-0.4,0.5
		s0.5,0.2,0.5,0.2s0.7-0.2,0.8-0.4c0.1-0.3,0.4-0.8,0.7-0.6c0,0,0-0.1,0-0.1c0,0,0-0.1,0-0.2c0-0.3-0.2-0.6-0.4-0.8
		c-0.2-0.2,0.1-0.7,0.1-0.7c0.1,0.9,1.6,1.4,1.9,1.6c0.3,0.2,0.6-0.2,0.6-0.2s0,0.6,0.1,0.8c0,0.1,0.1,0.4,0,0.7
		c0.1,0.2,0.4,0.3,0.4,0.3c0.2-0.2,0.5-0.3,0.6-0.3c0.3,0.1,0.9,0.3,1.3,0.2c0.4-0.1,0.2,0.3,0,0.7c-0.2,0.3-0.4,1.2-0.9,1.2
		c-0.5,0-1.3-0.1-1.3-0.1s0,0.2-0.2,0.2c-0.2,0-0.6-0.2-1-0.2c-0.4,0-0.3,0.2-0.4-0.1c-0.2-0.3-0.7-0.6-0.9-0.3
		c-0.2,0.2-0.3,0.9-0.3,0.9s-0.1-0.1-0.5-0.2c-0.4-0.1-0.5-0.8-0.5-0.8s-1.1-0.1-1.1-0.3c0-0.2,0.4-0.4,0.4-0.4l0.1-0.6
		c0,0,0-0.3-0.6-0.3c-0.6,0-1.1-0.3-1.4-0.1c-0.3,0.2-1.4,0.4-1.6,0.2c-0.2-0.2-0.5,0-0.5,0l-0.1,0.1c0,0-0.7,0-1,0.5
		c-0.2,0.5-0.6,1.3-0.6,1.3l-1,0.5L37,22.7c0,0-0.2,0.8-0.3,1.4c-0.1,0.6-0.5,1.3-0.5,1.8c0,0.5,0.5,1.6,0.7,2.2s1.1,1.7,1.1,1.7
		s0.1,0.2,0.5,0c0.4-0.2,0.8,0,1.1-0.2c0.3-0.2,0.8-0.4,1.1-0.2c0.3,0.3,0.5,1,0.5,1s0.2-0.6,0.4,0.2c0.3,0.8,0.4,2.1,0.6,2.3
		c0.2,0.3,0.6,1,0.6,1.3c0.1,0.3,0.4,1.4,0.4,1.4l0.3,0.7c0,0-0.4,0.6-0.4,1.1c0,0.5,0,1,0.2,1.4c0.2,0.4,0.6,0.7,0.8,1.2
		c0.2,0.5,0.7,1.9,1.2,2.5c0.4,0.6,1.4,2.1,1.7,2.1c0.3,0,0.4-0.4,0.4-0.4s0.8,0.5,1.3,0.4c0.4-0.2,2.2-1.6,2.2-2
		c0.1-0.4,0.1-0.4,0.1-0.4l0.3-0.8c0,0-0.3-1.1-0.5-1.1s0.8-0.5,1-0.6c0.2-0.1,1.6-0.7,1.6-1s-0.3-1.9-0.6-1.9
		c-0.3,0-0.5-0.2-0.5-0.7s-0.5-1.2-0.1-1.6c0.4-0.4,2-2.1,2-2.1s1.1-0.5,1.3-0.9c0.2-0.4,0.7-1.9,1.2-2.2c0.5-0.3,0.7-1.5,0.6-1.7
		c0,0-0.4,0.1-1.1,0.5c-0.7,0.4-1.2,0.3-1.5,0.5c-0.2,0.2-0.5,0.2-0.5,0.2L54,28.5l-1.5-1.2c0,0-0.1-1.5-0.4-1.5
		c-0.3-0.1-0.4-0.4-0.4-0.6c0-0.2-0.2-0.6-0.5-1.1c-0.2-0.3-0.5-1.2-0.7-1.9c-0.2-0.5-0.3-0.9-0.3-0.9l0.5,0.9c0,0,0.4-0.2,0.5,0
		c0.1,0.2,0.5,1.4,0.5,1.4s0.5,0,0.5,0.5c0,0.5,0.2,1.1,0.2,1.1l0.6,0.1v0.6c0,0,0.2-0.1,0.5,0.5c0.4,0.6,0.7,1.7,0.7,1.7
		s0.2,0.2,1-0.2c0.7-0.3,2.1-1,2.1-1v-0.4c0,0,0.3,0.2,0.8-0.1c0.5-0.3,0.3-0.4,0.8-1c0.5-0.6,1-0.8,1-0.8s-0.5-0.4-0.8-0.8
		c-0.4-0.4-0.7-0.6-0.7-0.6s-0.2,0.3-0.6,0.4c-0.4,0.1-0.9,0.1-0.9,0.1l0.2-0.1l0-0.8c0,0-0.3,0.3-0.4,0.3c-0.1,0-0.5-0.2-0.7-0.5
		c-0.1-0.3-0.5-0.6-0.4-0.8s0-0.4,0-0.4s0.2,0,0.4,0c0.2,0.1,0.6,0.6,0.6,0.6l0.6,0.6c0,0,0.2-0.1,0.6,0.2s0.2,0,0.3,0
		c0.2,0,0.6-0.3,0.7,0c0.1,0.2,1,0.5,1.4,0.5c0.5,0,0.7-0.2,1.4-0.2s0.8,0.1,0.8,0.2s-0.1,0.4,0.1,0.5c0.2,0.1,0.8,1.1,1,1.1
		c0.2,0,0.4,0,0.4,0s0.3-0.2,0.4-0.5c0-0.3,0.3,1.4,0.3,1.6c0,0,0.1,0,0.5,0.9c0.5,1.1,1.1,2.1,1.4,2.3c0.3,0.2,0.5,0.1,0.5,0.1
		l0.5-1.2l-0.1-0.7c0,0,0.1,0.1,0.1,0c0.2-0.1,0.1-1.2,0.1-1.2s0.2,0.1,0.3,0c0.1-0.1,0.2-0.2,0.2-0.2l0.2-0.2c0,0,0-0.4,0.2-0.6
		c0.3-0.2,0.6-0.6,0.6-0.6s0.3-0.1,0.3-0.3s0.4-0.4,0.4-0.4s-0.2-0.2-0.2-0.3s0.5-0.2,0.7-0.2c0.2,0,0.4-0.3,0.4-0.3l0.2,0.5
		c0,0,0.6,0.3,0.7,0.6c0.1,0.4,0.1,0.8,0.2,0.9c0.1,0.1,0.7,0.2,0.7,0.1s0.2-0.7,0.2-0.7l0.3,1.2c0,0,0.4,1.1,0.4,2
		c0,0.9,0.3,0.7,0.3,0.7s0.2,0.2,0.2,0.5c0,0.3,0,0.5,0.1,0.7c0.1,0.2,0.8,0.7,0.8,0.7s0.2-0.1,0-0.5c0,0-0.2-0.1-0.2-0.4
		s-0.2-0.5-0.4-0.8c-0.2-0.3-0.1-0.6-0.2-0.7c-0.1,0-0.3-0.2-0.3-0.4c0-0.2,0.1-0.6-0.1-1c-0.1-0.4,0.1-0.6,0.1-0.6s0,0.4,0.2,0.6
		c0.2,0.2,0.3,0,0.5,0.4c0.2,0.4,0.2,0.7,0.2,0.7s0.3,0.1,0.3-0.1s-0.1-0.6,0.1-0.9c0.2-0.3,0.2-1.7-0.1-2.1
		C74.5,24.3,74,23.6,74,23.5z M53.5,17.5c-0.3-0.1-1.3-0.4-1.5-0.4c-0.3,0.1-1.6,0.2-1.7,0.1c-0.1-0.1-0.1-0.1-0.1-0.1
		s0.1-0.2,0.2-0.8c0.1-0.6,0.2-0.6,0.5-0.6c0.3,0,0.3,0,0.3,0s-0.1,0.2,0,0.3c0.1,0.2,0.3,0.3,0.6,0.3c0.2,0.1,0.6-0.2,0.6-0.2
		s0-0.2-0.3-0.3c-0.3-0.1,0.7-0.6,1-0.6c0.3,0-0.5,0.1-0.5,0.4c0,0.3,0,0.3,0.3,0.5c0.3,0.2,0.8,0.4,0.9,0.7
		C53.7,17.1,53.8,17.6,53.5,17.5z M56.9,17.8l0,0.3c0,0,0.3,0,0.2,0c-0.1,0-0.1,0.5-0.1,0.6c0,0.2,0.2,0.2,0.2,0.3c0,0.1-1,0-1,0
		L56,18.8l-0.2-0.1c0,0-0.2-0.2-0.2-0.3c0-0.1,0.2-0.1,0.2-0.1v-0.2l0.4-0.4c0,0-0.2-0.3-0.5-0.6c-0.3-0.3-0.2-0.7-0.2-0.7
		c0-0.2,0.4-0.6,0.6-0.7c0.1-0.1,0.7-0.3,0.8-0.3s0.3,0.7,0.3,0.7s-0.1,0-0.3,0c-0.2,0-0.4,0.2-0.5,0.4c-0.1,0.1,0.1,0.4,0.3,0.6
		c0.1,0.2,0.1,0.3,0.1,0.3l0.5-0.1l0.3,0.4L56.9,17.8z M59.3,15.8c0,0.1,0.2,0.1,0.1,0.2c0,0.1-0.2,0.1-0.3,0.3s-0.6,0.1-0.6,0.1
		v-0.5c0,0,0.3-0.3,0.6-0.4c0.3-0.1,0.3-0.1,0.3-0.1S59.3,15.7,59.3,15.8z"/>
	<path d="M48.1,18.9c-0.1,0-0.1,0.1-0.2,0.2c0,0,0,0,0,0c0.1,0.4,0.6,0.3,0.9,0.2c0,0,0,0,0,0c0-0.2-0.1-0.2-0.1-0.3
		C48.4,19.1,48.2,19,48.1,18.9z"/>
</g>
</svg>
