<?xml version="1.0" encoding="utf-8"?>
<!-- Generator: Adobe Illustrator 18.0.0, SVG Export Plug-In . SVG Version: 6.00 Build 0)  -->
<!DOCTYPE svg PUBLIC "-//W3C//DTD SVG 1.1//EN" "http://www.w3.org/Graphics/SVG/1.1/DTD/svg11.dtd">
<svg version="1.1" id="Layer_1" xmlns="http://www.w3.org/2000/svg" xmlns:xlink="http://www.w3.org/1999/xlink" x="0px" y="0px"
	 viewBox="0 0 110 110" enable-background="new 0 0 110 110" xml:space="preserve">
<rect x="11.9" y="14.6" fill="none" stroke="#000000" stroke-width="5.6693" stroke-miterlimit="10" width="86.6" height="82.1"/>
<g>
	<path d="M76.5,35.9c-0.2-0.2-0.4-0.3-0.6-0.4C75.9,35.5,76.1,35.7,76.5,35.9z"/>
	<path d="M88,71.8c0.1,6.3-7.2,9.4-11,9.8C73.1,82,60.3,69.5,60.3,69.5s6.9,4.5,11.4,6.1c4.6,1.7,10.8-1.5,10.8-1.5s3.9-2,5.1-7.2
		c1.2-5.2-0.9-6.3-0.9-6.3S90.7,64.6,82,71c-8.7,6.4-21.3-4.7-21.3-4.7l0.2-2.8c3.7,3.5,14.3,2.8,14.3,2.8s0,0,7-2.9
		c7-2.9,3.9-11.7,3.9-11.7s0.2,3,0,4.8c-0.2,1.9-2.4,4.8-12.2,6.5c-9.8,1.7-11.9-2-13.2-3c-1.3-0.9,0-3.7,0-3.7s5.2,2,8.2,2.8
		c3,0.7,9.8-2.4,9.8-2.4s0,0,3.9-2.8c3.9-2.8,0.7-8.9,0.7-8.9s-0.2-3.9,0,1.9c0.2,5.7-9.6,7.6-11.5,8.3s-12-1.3-12.2-2.9
		c-0.2-1.7,1.1-2.6,1.1-2.6c8.3,1.3,9.1,0,15.4-2.7c6.3-2.7,4.1-6.2,3.3-7.8c-0.5-1.2-2.1-2.4-2.9-3.1c2.3,2,1.9,6.5,0.9,7.3
		c-1.1,0.9-5.2,2.8-9.3,3.3c-4.1,0.6-7.6,0-7.6,0s0,0-0.2-1.9c-0.2-1.9,3.5-3,8.3-4.6c4.8-1.7,4.8-3,4.8-3s0,0,0.9-1.7
		c0.9-1.7-1.5-3.4-1.5-3.4s-4.1-2.5-5.2-4.5c-1.1-2-2.6,2-2.6,2l3.5,1.5c0,0,0,0,1.7,1.9c1.7,1.9-2.6,4.3-6.9,4.3s-4.6-1.7-4.6-1.7
		l-3.3,0.7l-3.3-0.7c0,0-0.4,1.7-4.6,1.7c-4.3,0-8.5-2.4-6.9-4.3c1.7-1.9,1.7-1.9,1.7-1.9l3.5-1.5c0,0-1.5-4.1-2.6-2
		c-1.1,2-5.2,4.5-5.2,4.5s-2.4,1.8-1.5,3.4c0.9,1.7,0.9,1.7,0.9,1.7s0,1.3,4.8,3c4.8,1.7,8.5,2.8,8.3,4.6c-0.2,1.9-0.2,1.9-0.2,1.9
		s-3.5,0.6-7.6,0s-8.2-2.4-9.3-3.3c-1-0.9-1.4-5.4,0.9-7.3c-0.9,0.6-2.4,1.9-2.9,3.1c-0.7,1.7-3,5.1,3.3,7.8c6.3,2.7,7,4,15.4,2.7
		c0,0,1.3,0.9,1.1,2.6c-0.2,1.7-10.4,3.6-12.2,2.9c-1.9-0.7-11.7-2.6-11.5-8.3c0.2-5.7,0-1.9,0-1.9s-3.1,6.1,0.7,8.9
		c3.9,2.8,3.9,2.8,3.9,2.8s6.9,3.1,9.8,2.4c3-0.7,8.2-2.8,8.2-2.8s1.3,2.8,0,3.7c-1.3,0.9-3.3,4.6-13.2,3c-9.8-1.7-12-4.6-12.2-6.5
		c-0.2-1.9,0-4.8,0-4.8s-3.1,8.8,3.9,11.7c7,2.9,7,2.9,7,2.9s10.6,0.7,14.3-2.8l0.2,2.8c0,0-12.6,11.1-21.3,4.7
		c-8.7-6.4-4.8-10.3-4.8-10.3s-2.1,1.1-0.9,6.3c1.2,5.2,5.1,7.2,5.1,7.2s6.2,3.1,10.8,1.5c4.6-1.7,11.4-6.1,11.4-6.1
		S37.9,82,34,81.6c-3.9-0.4-11.1-3.5-11-9.8c0.1-6.3-1.7,6.3,2.5,9.1c4.3,2.8,10.2,11,25.8-7.8l4.3,2.8l4.3-2.8
		c15.6,18.7,21.5,10.5,25.8,7.8C89.8,78.1,87.9,65.5,88,71.8z"/>
	<path d="M34.5,35.9c0.4-0.3,0.6-0.4,0.6-0.4C34.9,35.6,34.7,35.8,34.5,35.9z"/>
</g>
</svg>
