<?xml version="1.0" encoding="utf-8"?>
<!-- Generator: Adobe Illustrator 18.0.0, SVG Export Plug-In . SVG Version: 6.00 Build 0)  -->
<!DOCTYPE svg PUBLIC "-//W3C//DTD SVG 1.1//EN" "http://www.w3.org/Graphics/SVG/1.1/DTD/svg11.dtd">
<svg version="1.1" id="Layer_1" xmlns="http://www.w3.org/2000/svg" xmlns:xlink="http://www.w3.org/1999/xlink" x="0px" y="0px"
	 viewBox="0 0 110 110" enable-background="new 0 0 110 110" xml:space="preserve">
<path fill="none" stroke="#231F20" stroke-width="5.6693" stroke-miterlimit="10" d="M64.4,58.3c-0.5-0.4-2.3-1.9-2.4-3.1v-0.4
	c0.1-1.4,2.6-3.2,2.6-3.2l-0.1,0.1c6.7-3.9,11.3-11.8,11.3-21c0,0,0.2-22,1.9-23.6H55H32.3c1.7,1.6,1.9,23.6,1.9,23.6
	c0,9.2,4.6,17.2,11.4,21.1l-0.2-0.1c0,0,2.6,1.9,2.6,3.3v0.2c0,1.2-1.9,2.8-2.4,3.2c-6.7,3.9-11.3,11.8-11.3,21c0,0-0.2,22-1.9,23.6
	H55h22.7c-1.7-1.6-1.9-23.6-1.9-23.6C75.8,70.1,71.1,62.2,64.4,58.3z"/>
<line fill="none" stroke="#231F20" stroke-width="2.8346" stroke-miterlimit="10" x1="34.1" y1="23" x2="75.9" y2="23"/>
<line fill="none" stroke="#231F20" stroke-width="2.8346" stroke-miterlimit="10" x1="34.1" y1="91.5" x2="75.9" y2="91.5"/>
<path d="M55.1,51.2c-7.1,0-16.4-5.6-17.2-12.4c-0.1,0.5,0.9,3.5,0.9,4c0,7.6,8.7,11.2,16.3,11.2c7.6,0,13.1-2.4,15.6-9.6
	c0.5-1.3,1.7-5.1,1.6-5.6C71.6,45.7,62.2,51.2,55.1,51.2z"/>
<circle cx="55.1" cy="57.5" r="1.2"/>
<circle cx="55.1" cy="61.6" r="1.2"/>
<circle cx="55.1" cy="65.6" r="1.2"/>
<circle cx="55.1" cy="69.4" r="1.2"/>
<circle cx="55.1" cy="73.3" r="1.2"/>
</svg>
