<?xml version="1.0" encoding="utf-8"?>
<!-- Generator: Adobe Illustrator 18.0.0, SVG Export Plug-In . SVG Version: 6.00 Build 0)  -->
<!DOCTYPE svg PUBLIC "-//W3C//DTD SVG 1.1//EN" "http://www.w3.org/Graphics/SVG/1.1/DTD/svg11.dtd">
<svg version="1.1" id="Layer_1" xmlns="http://www.w3.org/2000/svg" xmlns:xlink="http://www.w3.org/1999/xlink" x="0px" y="0px"
	 viewBox="0 0 110 110" enable-background="new 0 0 110 110" xml:space="preserve">
<path d="M8.4,11.5c1.5,1.4,3,2.7,4.4,4.2c2.2,2.3,4.8,4.1,7.6,5.6c6.2,3.4,12.8,4.8,19.8,4.6c4-0.1,8,0,11.9-1
	c5.6-1.4,10.2-4.6,14.5-8.4c1.6-1.4,3.3-2.9,5.2-4.6c-0.1,1.1-0.2,1.9-0.3,2.7C70,28,67.4,41,63.1,53.7c-2.3,6.8-5,13.3-9.2,19.1
	c-2.7,3.7-5.8,6.9-10,8.7c-6,2.6-11.9,1.1-16.6-4.3c-4-4.5-6.4-9.8-8.5-15.3c-3.5-9.3-5.8-19-7.4-28.8c-1.1-6.6-1.8-13.3-2.7-19.9
	c0-0.2-0.1-0.4-0.2-0.7C8.4,12.2,8.4,11.8,8.4,11.5z M15.8,25.6c0.2,1.5,0.5,3.2,0.8,4.8c1.7,9.8,3.8,19.4,7.2,28.8
	c1.9,5,4,10,7.6,14.1c4,4.6,8.4,5,13.3,1.3c0.2-0.1,0.3-0.3,0.5-0.4c3.9-3.3,6.5-7.7,8.7-12.2c4.2-8.9,6.8-18.3,8.9-27.9
	c0.6-2.7,1.1-5.5,1.7-8.5c-0.6,0.4-1,0.6-1.4,0.8c-2.3,1.1-4.5,2.3-6.8,3.2c-4.2,1.6-8.7,1.8-13.2,2c-5.7,0.2-11.5,0.1-17-1.8
	C22.6,28.6,19.3,27,15.8,25.6z"/>
<path d="M29.9,42.3c2.4,0,4.5,1.5,5.3,3.7c0.2-0.6,0.3-1.2,0.3-1.9c0-3.1-2.5-5.6-5.6-5.6s-5.6,2.5-5.6,5.6c0,0.7,0.1,1.3,0.3,1.9
	C25.4,43.9,27.5,42.3,29.9,42.3z"/>
<path d="M49.9,42.3c2.4,0,4.5,1.5,5.3,3.7c0.2-0.6,0.3-1.2,0.3-1.9c0-3.1-2.5-5.6-5.6-5.6s-5.6,2.5-5.6,5.6c0,0.7,0.1,1.3,0.3,1.9
	C45.4,43.9,47.5,42.3,49.9,42.3z"/>
<path d="M71.9,58.9c-2.4,0-4.5-1.5-5.3-3.7c-0.2,0.6-0.3,1.2-0.3,1.9c0,3.1,2.5,5.6,5.6,5.6c3.1,0,5.6-2.5,5.6-5.6
	c0-0.7-0.1-1.3-0.3-1.9C76.3,57.4,74.3,58.9,71.9,58.9z"/>
<path d="M61.5,77.3c3.6,0,6.6,2.3,7.7,5.4c0.3-0.9,0.5-1.8,0.5-2.8c0-4.5-3.7-8.2-8.2-8.2s-8.2,3.7-8.2,8.2c0,1,0.2,1.9,0.5,2.8
	C54.9,79.6,58,77.3,61.5,77.3z"/>
<path d="M102.2,56.3"/>
<path d="M89.8,31.9c-4.3,3.8-8.9,7-14.5,8.4c-3.9,1-7.9,0.9-11.9,1c-0.4,0-0.8,0-1.2,0c0.1,1.3-0.1,2.4-0.6,3.7
	c-0.3,0.8-0.6,1.4-1.1,1.9c1.8,0.1,3.7,0,5.6,0c4.5-0.2,9-0.3,13.2-2c2.3-0.9,4.5-2.1,6.8-3.2c0.4-0.2,0.7-0.4,1.4-0.8
	c-0.6,3-1.1,5.8-1.7,8.5c-2.1,9.6-4.7,19-8.9,27.9c-2.2,4.6-4.7,8.9-8.7,12.2c-0.2,0.1-0.3,0.3-0.5,0.4c-4.9,3.8-9.2,3.4-13.3-1.3
	c-3.6-4.1-5.7-9-7.6-14.1c-0.2-0.6-0.4-1.2-0.7-1.9c-0.1,0.2-0.1,0.4-0.2,0.6c-0.8,1.9-2.3,3.4-4.3,3.6c0,0.1,0.1,0.2,0.1,0.3
	c2.1,5.5,4.5,10.8,8.5,15.3C55.2,98,61,99.5,67,96.9c4.3-1.8,7.4-5,10-8.7c4.2-5.8,7-12.4,9.2-19.1c4.3-12.7,6.9-25.8,8.4-39
	c0.1-0.8,0.2-1.6,0.3-2.7C93.1,29,91.5,30.5,89.8,31.9z"/>
<path d="M27,52.8c0,0,4.8,7,12.9,6.7c3.8-0.1,7.8-1.8,13.3-6.7c0,0-3.3,14.8-13.1,16.7S27,52.8,27,52.8z"/>
</svg>
