<?xml version="1.0" encoding="utf-8"?>
<!-- Generator: Adobe Illustrator 18.0.0, SVG Export Plug-In . SVG Version: 6.00 Build 0)  -->
<!DOCTYPE svg PUBLIC "-//W3C//DTD SVG 1.1//EN" "http://www.w3.org/Graphics/SVG/1.1/DTD/svg11.dtd">
<svg version="1.1" id="Layer_1" xmlns="http://www.w3.org/2000/svg" xmlns:xlink="http://www.w3.org/1999/xlink" x="0px" y="0px"
	 viewBox="0 0 110 110" enable-background="new 0 0 110 110" xml:space="preserve">
<path d="M126,34.2"/>
<g>
	<g>
		<path d="M13,95.9l0.5-1.7c0.1-0.2,6.8-23,0.5-35.8c-0.1-0.3-3.6-8.2-4.4-17.4l0-0.5c0-0.2,0-0.4,0-0.5c0-0.5-0.1-1-0.1-1.6l0-1.6
			l0,0C10.1,20.9,23,8.2,38.8,8.2c12.3,0,23.6,7.3,26.7,16.9l0,0l0.8,2.4c0.5,1.2,0.8,2.5,1.1,3.7l4.2,14.4l-3.4,3.8l7.7,12.8
			l-8.7,2.8l0.8,4.5l-8.6,2l7.1,1.5l-1,0.8c0,0-2.5,2.1-2.5,6c0,1.9,0,6.8-5,6.8c-0.6,0-1.2-0.1-2-0.2c-3.5-0.6-13.9-3.6-14.3-3.7
			c0,0-0.2,0-0.4,0c-0.6,0-1,0.2-1.4,0.6c-0.9,0.9-1.3,2.9-1.3,5.5c0.2,8.2,0.3,9.6,0.3,9.8l0.3,2.2L13,95.9z M42.5,79.8
			c0.1,0,10.7,3.1,14,3.6c0.6,0.1,1,0.1,1.4,0.1c0.9,0,1.7,0,1.7-3.5c0-3.8,0.7-4.4,1.8-5.7L54.2,72l10.2-4.2l-0.8-4.8l7.5-2.4
			l-6.8-11.4l3.8-4.3L64.2,32c-0.2-1-0.5-2.1-0.9-3.1c0,0-0.5-1.1-0.6-1.5c-2.6-8.8-12.5-15.9-23.9-15.9c-14.4,0-26,11.9-26,26.5
			l0,0.5c0,0.5,0,0.9,0.1,1.4l0.1,1c0.7,8.7,4.1,16.3,4.1,16.3c5.8,11.8,1.6,30.5,0.1,36.3L35.5,97c-0.1-1.8-0.1-4.5-0.2-7.9
			c-0.1-3.6,0.7-6.3,2.2-7.9c1.3-1.3,2.7-1.6,3.8-1.6C41.9,79.6,42.4,79.8,42.5,79.8z"/>
	</g>
</g>
<g>
	<rect x="89.4" y="54.6" transform="matrix(0.2132 0.977 -0.977 0.2132 132.5792 -39.1706)" width="2.4" height="16.2"/>
</g>
<g>
	<rect x="83.3" y="68.4" transform="matrix(0.9999 1.729588e-02 -1.729588e-02 0.9999 1.2183 -1.5747)" width="16.7" height="2.5"/>
</g>
<g>
	<rect x="82.5" y="75.3" transform="matrix(0.977 0.2132 -0.2132 0.977 18.4001 -17.5558)" width="16.2" height="2.4"/>
</g>
<g>
	<rect x="80.5" y="81.8" transform="matrix(0.8826 0.4702 -0.4702 0.8826 49.445 -31.9247)" width="16.2" height="2.5"/>
</g>
</svg>
