<?xml version="1.0" encoding="utf-8"?>
<!-- Generator: Adobe Illustrator 18.0.0, SVG Export Plug-In . SVG Version: 6.00 Build 0)  -->
<!DOCTYPE svg PUBLIC "-//W3C//DTD SVG 1.1//EN" "http://www.w3.org/Graphics/SVG/1.1/DTD/svg11.dtd">
<svg version="1.1" id="Layer_1" xmlns="http://www.w3.org/2000/svg" xmlns:xlink="http://www.w3.org/1999/xlink" x="0px" y="0px"
	 viewBox="0 0 110 110" enable-background="new 0 0 110 110" xml:space="preserve">
<path d="M71.2,35.9l13.9,0V28c0,0-45.7-0.9-54.4,1C22,30.9,19.9,44.8,19.9,44.8c0.4-2.6,5.4-7.7,8.7-8.3c4.3-0.8,7.4-0.6,7.4-0.6
	l4.4,0l0,29.9c0,7-1.7,9.3-3.1,10c-0.1,0-0.1,0-0.2,0c-0.5,0-1.1,0.1-1.6,0.2c0,0,0,0,0,0l0,0c-2.4,0.7-4.2,2.9-4.2,5.6
	c0,3,2.3,5.4,5.1,5.8c0.2,0,0.4,0.1,0.6,0.1c0,0,0.1,0,0.1,0c0.1,0,0.2,0,0.2,0c3.5-0.1,8.7-3.2,9.9-8.9c1.4-6.6,1.3-31.2,1.2-42.6
	l14.7,0c-0.2,11.2-0.3,34.6,1,41.5c0.5,5.3,4.9,9.5,10.4,9.5c5.8,0,10.4-4.7,10.4-10.4c0,0,0,0,0-0.1c0-0.1,0-0.1,0-0.2
	c0,0,0,0.1-0.1,0.1c-0.2,0.4-0.4,0.7-0.6,1c-0.1,0.2-0.3,0.4-0.4,0.5c-1.3,1.5-3.3,2.4-5.4,2.4c-3.1,0-5.8-2-6.9-4.7
	c-0.5-1.4-0.5-5.6-0.5-5.7l0-3.3L71.2,35.9z"/>
<path d="M126,34.2"/>
</svg>
