<?xml version="1.0" encoding="utf-8"?>
<!-- Generator: Adobe Illustrator 18.0.0, SVG Export Plug-In . SVG Version: 6.00 Build 0)  -->
<!DOCTYPE svg PUBLIC "-//W3C//DTD SVG 1.1//EN" "http://www.w3.org/Graphics/SVG/1.1/DTD/svg11.dtd">
<svg version="1.1" id="Layer_1" xmlns="http://www.w3.org/2000/svg" xmlns:xlink="http://www.w3.org/1999/xlink" x="0px" y="0px"
	 viewBox="0 0 110 110" enable-background="new 0 0 110 110" xml:space="preserve">
<path d="M80.7,35.3c0,11.4-8.4,31.2-19.8,31.2c-11.4,0-21.3-19.8-21.3-31.2h-5.8C33.8,49.8,46.7,73,61.2,73
	c14.5,0,25.3-23.2,25.3-37.7H80.7z"/>
<path fill="none" stroke="#231F20" stroke-width="2.126" stroke-miterlimit="10" d="M36.9,35.5c0,0-7.2-26.2-1.7-28.4s12-1.6,12-1.6
	"/>
<path fill="none" stroke="#231F20" stroke-width="2.126" stroke-miterlimit="10" d="M83.8,35.9c0,0,6.7-26.1,1.2-28.4
	c-5.5-2.3-12-1.7-12-1.7"/>
<path fill="none" stroke="#231F20" stroke-width="2.8346" stroke-miterlimit="10" d="M61.2,73"/>
<rect x="47.1" y="3.3" fill="none" stroke="#231F20" stroke-width="2.126" stroke-miterlimit="10" width="8.9" height="4.9"/>
<rect x="63.8" y="3.3" fill="none" stroke="#231F20" stroke-width="2.126" stroke-miterlimit="10" width="8.9" height="4.9"/>
<path fill="none" stroke="#231F20" stroke-width="5.6693" stroke-miterlimit="10" d="M61.2,70.8v20.7c0,0-0.3,11.1,8,13.1
	c8.3,2,10.9-6.6,10.9-6.6s3.8-11.3-5.2-12.3s-14.7-0.3-14.7-0.3H35.1"/>
<circle fill="none" stroke="#231F20" stroke-width="2.126" stroke-miterlimit="10" cx="27.2" cy="85.1" r="8.6"/>
<circle fill="#231F20" cx="27.2" cy="85.1" r="3.8"/>
</svg>
