<?xml version="1.0" encoding="utf-8"?>
<!-- Generator: Adobe Illustrator 18.0.0, SVG Export Plug-In . SVG Version: 6.00 Build 0)  -->
<!DOCTYPE svg PUBLIC "-//W3C//DTD SVG 1.1//EN" "http://www.w3.org/Graphics/SVG/1.1/DTD/svg11.dtd">
<svg version="1.1" id="Layer_1" xmlns="http://www.w3.org/2000/svg" xmlns:xlink="http://www.w3.org/1999/xlink" x="0px" y="0px"
	 viewBox="0 0 110 110" enable-background="new 0 0 110 110" xml:space="preserve">
<g>
	<g>
		<path fill="#231F20" d="M60.1,47c9.4,6.8,18.4,14.2,26,22.9c2.9,3.3,10.1,11.2,7.1,16.2c0.9-1.4,1.8-2.7,2.7-4.1
			C92.2,86.5,83,82.5,78.9,81c-11-4.1-21.2-10.6-30.8-17.3C38.6,57,29.6,49.4,22,40.7c-2.9-3.3-10.1-11.2-7.1-16.2
			c-0.9,1.4-1.8,2.7-2.7,4.1c3.7-4.4,12.9-0.5,17.1,1.1C40.3,33.8,50.5,40.3,60.1,47c0,0,2.8-4.1,2.8-4.2
			c-10.6-7.5-22-14.5-34.3-18.6c-5.7-1.9-11.3-3.2-14.9,2.2c-3.5,5.3-0.9,9.6,2.6,14.5c7.6,10.6,18.6,19.2,29.1,26.8
			c10.5,7.5,22,14.5,34.3,18.6c5.7,1.9,11.3,3.2,14.9-2.2c3.5-5.3,0.9-9.6-2.6-14.5C84.3,59,73.4,50.4,62.9,42.9
			C62.9,42.9,60,47,60.1,47z"/>
	</g>
</g>
<g>
	<g>
		<path fill="#231F20" d="M62.9,63.3c-9.3,6.5-19,12.5-29.5,16.9c-4.6,1.9-12.9,5.5-17.6,2.3c-10.2-6.8,25.7-33,29.5-35.8
			c9.2-6.6,19-12.5,29.5-16.9c4.6-1.9,12.9-5.5,17.6-2.3C102.6,34.3,66.7,60.5,62.9,63.3c-1.3,0.9-1.5,3.3-2.8,4.2
			C70.5,60,80.6,51.7,88.5,41.6c3.1-4,6.8-8.9,8-13.8c1.7-7.6-9.1-5.3-12.9-4.2C70.7,27.2,58.8,35,48,42.5
			c-10.4,7.3-20.5,15.8-28.4,25.9c-3.1,4-6.8,8.9-8,13.8c-1.7,7.6,9.1,5.3,12.9,4.2c12.8-3.6,24.7-11.4,35.4-19
			C61.4,66.6,61.6,64.2,62.9,63.3z"/>
	</g>
</g>
<g>
	<g>
		<path fill="#231F20" d="M65.4,57.3c-0.2,11.1-1.2,22.3-3.8,33.1c-1.3,5.2-2.1,13.4-7.9,12c-5.2-1.2-7-11.1-8-15.2
			c-2.7-11.2-3.2-23-3-34.5c0.1-11.1,1.2-22.3,3.8-33.1c1.3-5.2,2.1-13.4,7.9-12c5.2,1.2,7,11.1,8,15.2C65.1,34,65.6,45.8,65.4,57.3
			c0-1.4,2.8-2.7,2.8-4.2c0.1-12.8-0.5-25.8-4-38.2c-1.1-4-4.9-15.2-10.9-10.5c-3.7,2.9-6.4,9-7.9,13.3c-4.4,12.3-5.3,26.2-5.6,39.1
			c-0.3,12.7,0.5,25.9,4,38.2c1.1,4,4.9,15.2,10.9,10.5c3.7-2.9,6.4-9,7.9-13.3c4.4-12.3,5.3-26.2,5.6-39.1
			C68.2,54.5,65.5,55.9,65.4,57.3z"/>
	</g>
</g>
<circle fill="#231F20" stroke="#000000" stroke-miterlimit="10" cx="54" cy="54.7" r="6.4"/>
<circle fill="#231F20" stroke="#000000" stroke-miterlimit="10" cx="92.6" cy="36.3" r="2.2"/>
<circle fill="#231F20" stroke="#000000" stroke-miterlimit="10" cx="48.2" cy="11.5" r="2.2"/>
<circle fill="#231F20" stroke="#000000" stroke-miterlimit="10" cx="87.5" cy="42.5" r="2.2"/>
</svg>
