<?xml version="1.0" encoding="utf-8"?>
<!-- Generator: Adobe Illustrator 18.0.0, SVG Export Plug-In . SVG Version: 6.00 Build 0)  -->
<!DOCTYPE svg PUBLIC "-//W3C//DTD SVG 1.1//EN" "http://www.w3.org/Graphics/SVG/1.1/DTD/svg11.dtd">
<svg version="1.1" id="Layer_1" xmlns="http://www.w3.org/2000/svg" xmlns:xlink="http://www.w3.org/1999/xlink" x="0px" y="0px"
	 viewBox="0 0 110 110" enable-background="new 0 0 110 110" xml:space="preserve">
<path d="M126,34.2"/>
<path d="M49.9,45.6"/>
<path d="M90.7,33.5C90.7,33.5,90.7,33.6,90.7,33.5C90.7,33.6,90.7,33.6,90.7,33.5C90.8,33.5,90.7,33.5,90.7,33.5z"/>
<path d="M54.5,18c-9,0-16.6,5.8-19.4,13.9c0,0,0,0.1,0,0.1c-0.1,0.7-0.5,4.7,1.5,6.7c2.2,2.1,7.9,1.9,7.9,1.9v2.8
	c0,0,0.4,1.2,1.2,2.3c0.3,0.4,0.8,0.9,1.3,1.2c1.1,0.6,2.8,0.9,4.6,0.7c1.3-0.1,2.6-0.3,3.7-0.7c2.6-1,7.9-3,9.4-3
	c1.5,0,4,1.1,5.8,0.6c1.8-0.5,4.1-2.1,4.3-2.6c0,0,0,0,0-0.1c0.1-0.9,0.2-1.9,0.2-2.9C75.1,27.4,65.9,18,54.5,18z"/>
<g>
	<path d="M54.8,99.5l0.3-2.2c0-0.2,0.1-1.5,0.3-9.4c0.1-2.6-0.4-4.5-1.2-5.3c-0.4-0.4-0.8-0.6-1.4-0.6c-0.2,0-0.4,0-0.4,0
		c-0.4,0.1-10.5,3-13.8,3.6c-0.7,0.1-1.3,0.2-1.9,0.2c-4.8,0-4.8-4.8-4.8-6.6c0-3.8-2.4-5.8-2.4-5.8l-1-0.8l1.1-2.3L27,69.2l0.8-4.4
		l-8.4-2.7l7.4-12.4l-3.3-3.7l4.1-13.9c0.3-1.2,0.6-2.4,1.1-3.6l0.7-2.3l0,0C32.3,17,43.3,10,55.1,10c15.2,0,27.7,12.3,28.2,27.6
		l0,0l0,1.5c0,0.6,0,1.1-0.1,1.5c0,0.2,0,0.3,0,0.5l0,0.5c-0.8,8.9-4.1,16.5-4.2,16.8c-6,12.3,0.4,34.3,0.5,34.5l0.5,1.7L54.8,99.5z
		 M52.8,78.9c1,0,2.4,0.3,3.6,1.5c1.5,1.5,2.2,4.1,2.1,7.6c-0.1,3.3-0.1,5.9-0.2,7.6L76,92.2c-1.5-5.6-5.5-23.7,0.1-35
		c0,0,3.2-7.4,3.9-15.8l0.1-0.9c0-0.4,0-0.9,0.1-1.3l0-0.4c0-14.1-11.3-25.5-25.1-25.5C44,13.1,34.5,20,32,28.5
		c-0.1,0.4-0.5,1.5-0.5,1.5c-0.4,1-0.6,2-0.9,3L27,45.3l3.7,4.1l-6.6,11l7.2,2.4l-0.8,4.6l3.2,1.5l-1.4,3c1.1,1.2,2.7,3.7,2.7,7.4
		c0,3.4,0.8,3.4,1.6,3.4c0.4,0,0.8,0,1.4-0.1c3.2-0.5,13.4-3.5,13.5-3.5C51.6,79,52.1,78.9,52.8,78.9z"/>
</g>
</svg>
