<?xml version="1.0" encoding="utf-8"?>
<!-- Generator: Adobe Illustrator 18.0.0, SVG Export Plug-In . SVG Version: 6.00 Build 0)  -->
<!DOCTYPE svg PUBLIC "-//W3C//DTD SVG 1.1//EN" "http://www.w3.org/Graphics/SVG/1.1/DTD/svg11.dtd">
<svg version="1.1" id="Layer_1" xmlns="http://www.w3.org/2000/svg" xmlns:xlink="http://www.w3.org/1999/xlink" x="0px" y="0px"
	 viewBox="0 0 110 110" enable-background="new 0 0 110 110" xml:space="preserve">
<polygon fill="none" points="42.9,81 25.2,81 25.2,93.3 70.2,93.3 70.2,29.4 25.2,29.4 25.2,62.6 42.9,62.6 "/>
<polygon points="20.1,23.7 20.1,54.1 25.2,54.1 25.2,29.4 70.2,29.4 70.2,93.3 25.2,93.3 25.2,81 20.1,81 20.1,98.4 75.3,98.4 
	75.3,23.7 "/>
<line fill="none" stroke="#231F20" stroke-width="5.6693" stroke-miterlimit="10" x1="22.6" y1="58.7" x2="22.6" y2="75.8"/>
<line fill="none" stroke="#231F20" stroke-width="5.6693" stroke-miterlimit="10" x1="31.2" y1="66.9" x2="14" y2="66.9"/>
<polygon fill="none" stroke="#231F20" stroke-width="5.6693" stroke-miterlimit="10" points="85.7,82.4 73.4,82.4 73.4,26.5 
	35.4,26.5 35.4,13.4 85.7,13.4 "/>
<line fill="none" stroke="#231F20" stroke-width="2.8346" stroke-miterlimit="10" x1="32.4" y1="42.7" x2="63" y2="42.7"/>
<line fill="none" stroke="#231F20" stroke-width="2.8346" stroke-miterlimit="10" x1="32.4" y1="50.7" x2="63" y2="50.7"/>
<line fill="none" stroke="#231F20" stroke-width="2.8346" stroke-miterlimit="10" x1="32.4" y1="58.7" x2="63" y2="58.7"/>
</svg>
