<?xml version="1.0" encoding="utf-8"?>
<!-- Generator: Adobe Illustrator 18.0.0, SVG Export Plug-In . SVG Version: 6.00 Build 0)  -->
<!DOCTYPE svg PUBLIC "-//W3C//DTD SVG 1.1//EN" "http://www.w3.org/Graphics/SVG/1.1/DTD/svg11.dtd">
<svg version="1.1" id="Layer_1" xmlns="http://www.w3.org/2000/svg" xmlns:xlink="http://www.w3.org/1999/xlink" x="0px" y="0px"
	 viewBox="0 0 110 110" enable-background="new 0 0 110 110" xml:space="preserve">
<path fill="none" stroke="#231F20" stroke-width="2.8346" stroke-miterlimit="10" d="M52.1,48.2"/>
<path fill="none" stroke="#231F20" stroke-width="2.8346" stroke-miterlimit="10" d="M21.5,48.2"/>
<path fill="none" stroke="#231F20" stroke-width="2.8346" stroke-miterlimit="10" d="M52.1,56.2"/>
<path fill="none" stroke="#231F20" stroke-width="2.8346" stroke-miterlimit="10" d="M21.5,56.2"/>
<path fill="none" stroke="#231F20" stroke-width="2.8346" stroke-miterlimit="10" d="M52.1,63.2"/>
<path fill="none" stroke="#231F20" stroke-width="2.8346" stroke-miterlimit="10" d="M21.5,63.2"/>
<path fill="#231F20" d="M38.4,53.7c-7.6,0-13.8,6-14.2,13.5l-3.2,0l4.9,7.4l4.5-7.4l-3,0c0.4-5.8,5.2-10.4,11.1-10.4
	c6.2,0,11.1,5,11.1,11.1s-5,11.1-11.1,11.1c-1.6,0-3.1-0.3-4.4-0.9L32.7,81c1.7,0.8,3.7,1.2,5.7,1.2c7.9,0,14.2-6.4,14.2-14.2
	S46.2,53.7,38.4,53.7z"/>
<polygon fill="#FFFFFF" stroke="#231F20" stroke-width="5.6693" stroke-miterlimit="10" points="75.4,89.9 63.1,89.9 63.1,34.1 
	25.1,34.1 25.1,20.9 75.4,20.9 "/>
<rect x="12.8" y="34.1" fill="none" stroke="#231F20" stroke-width="5.6693" stroke-miterlimit="10" width="50.3" height="69"/>
<polygon fill="#FFFFFF" stroke="#231F20" stroke-width="5.6693" stroke-miterlimit="10" points="88.4,75.9 76.1,75.9 76.1,20.1 
	38.1,20.1 38.1,6.9 88.4,6.9 "/>
</svg>
