<?xml version="1.0" encoding="utf-8"?>
<!-- Generator: Adobe Illustrator 18.0.0, SVG Export Plug-In . SVG Version: 6.00 Build 0)  -->
<!DOCTYPE svg PUBLIC "-//W3C//DTD SVG 1.1//EN" "http://www.w3.org/Graphics/SVG/1.1/DTD/svg11.dtd">
<svg version="1.1" id="Layer_1" xmlns="http://www.w3.org/2000/svg" xmlns:xlink="http://www.w3.org/1999/xlink" x="0px" y="0px"
	 viewBox="0 0 110 110" enable-background="new 0 0 110 110" xml:space="preserve">
<rect x="29.9" y="20.5" fill="none" stroke="#231F20" stroke-width="5.6693" stroke-miterlimit="10" width="50.3" height="69"/>
<g>
	<path fill="#231F20" d="M71.1,73.4c-0.6,0.1-1.2,0.1-1.8,0.2c-0.6,0-1.2,0.1-1.8,0.1c-2,0-3.7-0.1-5-0.3c-1.4-0.2-2.5-0.5-3.5-0.8
		c-1-0.3-1.8-0.7-2.5-1.2c-0.7-0.4-1.3-0.9-2-1.4c-2.3,0-4.4-0.4-6.3-1.2c-1.9-0.8-3.5-1.9-4.8-3.3s-2.4-3.2-3.1-5.2
		s-1.1-4.3-1.1-6.8c0-2.3,0.4-4.4,1.1-6.4c0.7-1.9,1.7-3.6,3.1-5s3-2.5,4.9-3.2c1.9-0.8,4-1.2,6.4-1.2c2.3,0,4.4,0.4,6.3,1.2
		c1.9,0.8,3.5,1.9,4.8,3.3c1.3,1.4,2.3,3.1,3,5c0.7,2,1,4.1,1,6.5c0,1.9-0.2,3.7-0.7,5.4c-0.5,1.7-1.2,3.3-2.1,4.7
		c-0.9,1.4-2.1,2.6-3.5,3.6c-1.4,1-3,1.7-4.8,2c0.6,0.2,1.2,0.4,2,0.5c0.8,0.1,1.6,0.2,2.4,0.3c0.8,0.1,1.6,0.1,2.3,0.1
		c0.8,0,1.4,0,2,0c0.5,0,1.1,0,1.8-0.1c0.6-0.1,1.3-0.1,1.9-0.2L71.1,73.4z M43.2,54c0,1.8,0.2,3.5,0.7,5c0.5,1.6,1.2,2.9,2.1,4.1
		c0.9,1.2,2.1,2.1,3.5,2.7c1.4,0.7,3.1,1,4.9,1c1.9,0,3.5-0.3,4.9-1c1.4-0.7,2.6-1.6,3.5-2.7c0.9-1.2,1.6-2.5,2.1-4.1
		c0.5-1.6,0.7-3.3,0.7-5.2c0-1.8-0.2-3.5-0.7-5.1c-0.5-1.6-1.2-2.9-2.1-4.1c-0.9-1.2-2.1-2.1-3.5-2.7c-1.4-0.7-3.1-1-4.9-1
		c-1.9,0-3.5,0.4-4.9,1.1s-2.6,1.7-3.6,2.9c-1,1.2-1.7,2.6-2.2,4.2C43.5,50.6,43.2,52.2,43.2,54z"/>
</g>
</svg>
