<?xml version="1.0" encoding="utf-8"?>
<!-- Generator: Adobe Illustrator 18.0.0, SVG Export Plug-In . SVG Version: 6.00 Build 0)  -->
<!DOCTYPE svg PUBLIC "-//W3C//DTD SVG 1.1//EN" "http://www.w3.org/Graphics/SVG/1.1/DTD/svg11.dtd">
<svg version="1.1" id="Layer_1" xmlns="http://www.w3.org/2000/svg" xmlns:xlink="http://www.w3.org/1999/xlink" x="0px" y="0px"
	 viewBox="0 0 110 110" enable-background="new 0 0 110 110" xml:space="preserve">
<polygon fill="#231F20" points="77.3,94.8 84.8,89.4 97.3,19.8 90.2,18.5 "/>
<ellipse fill="none" stroke="#231F20" stroke-width="5.6693" stroke-miterlimit="10" cx="55" cy="20.2" rx="39.7" ry="9.4"/>
<path d="M55,41.1c-17.6,0-32.9-3.1-32.9-7h-6.4c0,6.9,17.6,12.5,39.3,12.5S94.4,41,94.4,34.1h-5.5C88.9,38,72.6,41.1,55,41.1z"/>
<path d="M54.9,55c-16.5,0-31-3.1-31-7h-6c0,6.9,16.6,12.5,37,12.5s37-5.6,37-12.5h-5.1C86.8,51.9,71.4,55,54.9,55z"/>
<path d="M54.9,68.8c-15.5,0-29.1-3.1-29.1-7h-5.7c0,6.9,15.6,12.5,34.7,12.5s34.7-5.6,34.7-12.5h-4.8C84.8,65.7,70.4,68.8,54.9,68.8
	z"/>
<path d="M55.1,81.8c-14.4,0-27.1-3.1-27.1-7h-5.3c0,6.9,14.5,12.5,32.3,12.5s32.3-5.6,32.3-12.5h-4.5C82.9,78.7,69.5,81.8,55.1,81.8
	z"/>
<path d="M55,95.1c-13.5,0-25.3-3.5-25.3-7.8h-4.9c0,7.7,13.5,13.9,30.2,13.9s30.2-6.2,30.2-13.9H81C81,91.7,68.5,95.1,55,95.1z"/>
<polygon fill="#231F20" points="32.7,95.5 25.2,90.1 12.7,20.4 19.8,19.2 "/>
</svg>
